# xmcd
#
# Track frame offsets: 
#        150
#        22498
#        44932
#        67130
#        102833
#        128261
#        144823
#        163958
#        187260
#        205730
#
# Disc length: 3049 seconds
#
# Revision: 2
# Processed by: cddbd v1.5.2PL0 Copyright (c) Steve Scherf et al.
# Submitted via: ExactAudioCopy v0.99pb5
#
DISCID=9b0be70a
DTITLE=Eddie Kirkland - Where You Get Your Sugar?
DYEAR=1995
DGENRE=Blues
TTITLE0=See See Rider
TTITLE1=Sugar Mama
TTITLE2=Love Me
TTITLE3=Our Love, So Beautiful
TTITLE4=Lover Bone
TTITLE5=What You Got On Your Mind?
TTITLE6=We Got A Problem
TTITLE7=Being In Love
TTITLE8=Shake What Your Mama Gave You
TTITLE9=Pity On Me
EXTD=
EXTT0=
EXTT1=
EXTT2=
EXTT3=
EXTT4=
EXTT5=
EXTT6=
EXTT7=
EXTT8=
EXTT9=
PLAYORDER=
